<?xml version="1.0" encoding="UTF-8"?>
<!DOCTYPE svg PUBLIC "-//W3C//DTD SVG 1.1//EN" "http://www.w3.org/Graphics/SVG/1.1/DTD/svg11.dtd">
<svg xmlns="http://www.w3.org/2000/svg" version="1.1" width="690px" height="200px" style="shape-rendering:geometricPrecision; text-rendering:geometricPrecision; image-rendering:optimizeQuality; fill-rule:evenodd; clip-rule:evenodd" xmlns:xlink="http://www.w3.org/1999/xlink">
<g><path style="opacity:0.215" fill="#76e3c7" d="M 47.5,46.5 C 201.171,46.8897 354.838,46.8897 508.5,46.5C 517.396,46.9514 526.229,47.9514 535,49.5C 540.806,48.4801 546.639,47.6468 552.5,47C 589.193,46.0526 625.86,46.3859 662.5,48C 666.467,48.4825 670.134,49.8159 673.5,52C 675.976,55.4518 677.476,59.2852 678,63.5C 679.987,86.4976 679.987,109.498 678,132.5C 677.891,139.259 674.724,143.759 668.5,146C 655.171,148.84 641.837,148.674 628.5,145.5C 609.462,154.852 590.462,154.685 571.5,145C 552.125,140.91 533.125,142.243 514.5,149C 510.311,149.336 506.144,149.836 502,150.5C 488.002,147.87 474.002,147.87 460,150.5C 444.33,147.164 428.663,143.83 413,140.5C 411.167,140.667 409.333,140.833 407.5,141C 401.452,145.02 394.785,147.354 387.5,148C 373.32,148.605 359.153,149.438 345,150.5C 335.468,149.797 325.968,148.797 316.5,147.5C 313.85,147.965 311.184,148.298 308.5,148.5C 286.121,145.012 263.621,142.679 241,141.5C 226.38,146.405 211.38,149.405 196,150.5C 177.691,148.054 159.358,146.721 141,146.5C 128.881,148.172 116.714,148.672 104.5,148C 77.4835,145.078 50.4835,142.078 23.5,139C 16.9289,138.816 12.7623,135.649 11,129.5C 8.78585,115.762 9.11919,102.096 12,88.5C 16.1321,76.9083 20.7987,65.575 26,54.5C 27.5429,52.6217 29.3762,51.1217 31.5,50C 36.9001,48.504 42.2335,47.3373 47.5,46.5 Z"/></g>
<g><path style="opacity:0.909" fill="#335961" d="M 68.5,79.5 C 67.2745,78.063 66.2745,76.3964 65.5,74.5C 60.1667,73.1667 54.8333,73.1667 49.5,74.5C 49.0576,75.7387 48.3909,76.7387 47.5,77.5C 47.0508,75.0225 47.7175,73.0225 49.5,71.5C 54.8333,72.8333 60.1667,72.8333 65.5,71.5C 67.4011,73.7284 68.4011,76.3951 68.5,79.5 Z"/></g>
<g><path style="opacity:0.831" fill="#2e4e57" d="M 168.5,73.5 C 168.5,73.1667 168.5,72.8333 168.5,72.5C 179.838,72.3335 191.172,72.5001 202.5,73C 207.013,73.6834 209.68,76.1834 210.5,80.5C 208.133,76.3101 204.466,74.1435 199.5,74C 189.172,73.5002 178.839,73.3335 168.5,73.5 Z"/></g>
<g><path style="opacity:0.913" fill="#335a62" d="M 443.5,79.5 C 442.275,78.063 441.275,76.3964 440.5,74.5C 435.167,73.1667 429.833,73.1667 424.5,74.5C 424.058,75.7387 423.391,76.7387 422.5,77.5C 422.051,75.0225 422.717,73.0225 424.5,71.5C 429.833,72.8333 435.167,72.8333 440.5,71.5C 442.401,73.7284 443.401,76.3951 443.5,79.5 Z"/></g>
<g><path style="opacity:0.91" fill="#335a61" d="M 573.5,79.5 C 572.275,78.063 571.275,76.3964 570.5,74.5C 565.167,73.1667 559.833,73.1667 554.5,74.5C 554.058,75.7387 553.391,76.7387 552.5,77.5C 552.051,75.0225 552.717,73.0225 554.5,71.5C 559.833,72.8333 565.167,72.8333 570.5,71.5C 572.401,73.7284 573.401,76.3951 573.5,79.5 Z"/></g>
<g><path style="opacity:1" fill="#57cade" d="M 68.5,79.5 C 71.693,85.7477 74.693,92.081 77.5,98.5C 78.038,100.117 78.3713,101.784 78.5,103.5C 78.33,104.822 78.6634,105.989 79.5,107C 75.1839,107.694 71.1839,108.194 67.5,108.5C 66.6773,111.977 66.1773,115.644 66,119.5C 65.3076,118.975 64.8076,118.308 64.5,117.5C 65.6143,112.554 65.781,107.554 65,102.5C 60,103.833 55,103.833 50,102.5C 49.5045,104.473 49.3379,106.473 49.5,108.5C 49.0623,109.506 48.3957,109.506 47.5,108.5C 44.3752,107.521 41.0419,107.187 37.5,107.5C 37.8134,110.247 37.48,112.914 36.5,115.5C 35.5258,113.257 35.1924,110.924 35.5,108.5C 38.5439,98.7429 41.8772,89.0762 45.5,79.5C 46.1667,78.8333 46.8333,78.1667 47.5,77.5C 48.3909,76.7387 49.0576,75.7387 49.5,74.5C 54.8333,73.1667 60.1667,73.1667 65.5,74.5C 66.2745,76.3964 67.2745,78.063 68.5,79.5 Z"/></g>
<g><path style="opacity:1" fill="#58d0e5" d="M 108.5,81.5 C 109.338,81.8417 109.672,82.5084 109.5,83.5C 109.523,85.9267 110.023,88.26 111,90.5C 113.419,85.0025 115.252,79.3359 116.5,73.5C 123.5,73.5 130.5,73.5 137.5,73.5C 137.5,84.8333 137.5,96.1667 137.5,107.5C 133.629,107.185 129.962,107.518 126.5,108.5C 126.5,108.833 126.5,109.167 126.5,109.5C 125.183,112.23 125.183,115.063 126.5,118C 126,118.5 125.5,119 125,119.5C 124.667,108.167 124.333,96.8333 124,85.5C 123.153,87.8543 122.32,90.1877 121.5,92.5C 121.02,95.4432 120.02,98.1098 118.5,100.5C 117.778,100.918 117.278,101.584 117,102.5C 116.377,109.523 116.543,116.523 117.5,123.5C 117.167,124.167 116.833,124.833 116.5,125.5C 115.5,125.167 114.833,124.5 114.5,123.5C 115.344,118.124 115.344,112.79 114.5,107.5C 112.344,105.062 110.011,104.895 107.5,107C 106.891,108.948 106.224,110.782 105.5,112.5C 104.833,112.5 104.5,112.167 104.5,111.5C 104.5,108.5 104.5,105.5 104.5,102.5C 103.597,98.1108 101.931,94.1108 99.5,90.5C 99.1667,90.5 98.8333,90.5 98.5,90.5C 97.1367,96.2449 97.1367,106.245 98.5,120.5C 97.5,120.5 96.5,120.5 95.5,120.5C 95.815,116.629 95.4816,112.962 94.5,109.5C 91.7131,108.523 88.7131,108.19 85.5,108.5C 85.8211,96.9191 85.4878,85.4191 84.5,74C 91.4921,73.5004 98.4921,73.3337 105.5,73.5C 105.733,76.5418 106.733,79.2084 108.5,81.5 Z"/></g>
<g><path style="opacity:1" fill="#59d1e7" d="M 146.5,73.5 C 150.833,73.5 155.167,73.5 159.5,73.5C 159.5,85.1667 159.5,96.8333 159.5,108.5C 158.778,108.918 158.278,109.584 158,110.5C 157.667,109.833 157.333,109.167 157,108.5C 156.601,108.728 156.435,109.062 156.5,109.5C 155.662,109.158 155.328,108.492 155.5,107.5C 151.741,105.609 148.908,106.609 147,110.5C 146.823,98.2577 146.323,86.091 145.5,74C 145.728,73.6012 146.062,73.4346 146.5,73.5 Z"/></g>
<g><path style="opacity:1" fill="#58cfe4" d="M 168.5,73.5 C 178.839,73.3335 189.172,73.5002 199.5,74C 204.466,74.1435 208.133,76.3101 210.5,80.5C 210.721,84.8323 209.721,88.8323 207.5,92.5C 206.34,93.265 205.34,94.265 204.5,95.5C 205.456,97.0754 206.123,98.742 206.5,100.5C 207.254,103.091 208.921,104.924 211.5,106C 210.376,106.839 209.709,108.006 209.5,109.5C 210.37,111.909 210.37,114.242 209.5,116.5C 208.679,113.553 208.179,110.553 208,107.5C 207.617,106.944 207.117,106.611 206.5,106.5C 206.389,105.883 206.056,105.383 205.5,105C 202.571,104.223 199.737,104.39 197,105.5C 196.831,112.191 196.331,118.858 195.5,125.5C 195.415,118.703 195.082,112.036 194.5,105.5C 194.25,103.326 193.25,101.659 191.5,100.5C 190.407,98.6508 189.074,96.9842 187.5,95.5C 185.208,95.7564 183.041,95.4231 181,94.5C 180.667,100.833 180.333,107.167 180,113.5C 179.802,111.618 179.302,109.952 178.5,108.5C 176.692,109.918 176.025,111.918 176.5,114.5C 175.539,116.265 175.205,118.265 175.5,120.5C 174.5,120.5 173.5,120.5 172.5,120.5C 173.19,116.51 173.357,112.51 173,108.5C 171.921,106.606 170.587,106.273 169,107.5C 168.822,96.2571 168.322,85.0905 167.5,74C 167.728,73.6012 168.062,73.4346 168.5,73.5 Z"/></g>
<g><path style="opacity:1" fill="#59d1e7" d="M 286.5,108.5 C 284.5,108.5 282.5,108.5 280.5,108.5C 278.833,108.5 277.167,108.5 275.5,108.5C 274.698,109.952 274.198,111.618 274,113.5C 273.667,104.167 273.333,94.8333 273,85.5C 271.731,86.9047 271.231,88.5714 271.5,90.5C 271.065,93.1573 270.065,95.4907 268.5,97.5C 266.192,101.047 265.025,105.047 265,109.5C 262.671,105.271 259.671,104.604 256,107.5C 254.824,102.78 252.99,98.4465 250.5,94.5C 250.024,90.905 248.858,87.5716 247,84.5C 246.5,93.4938 246.334,102.494 246.5,111.5C 246.66,113.199 246.494,114.866 246,116.5C 245.774,113.905 245.274,111.405 244.5,109C 241.183,108.502 237.85,108.335 234.5,108.5C 234.667,97.495 234.5,86.495 234,75.5C 233.626,74.5838 233.126,73.7504 232.5,73C 240.001,73.782 247.501,73.6153 255,72.5C 255.353,73.6716 255.187,74.8382 254.5,76C 256.478,80.7882 258.312,85.6215 260,90.5C 261.393,86.7143 263.059,83.0477 265,79.5C 265.758,77.2305 265.591,75.0639 264.5,73C 271.748,73.4269 279.082,73.5936 286.5,73.5C 286.5,85.1667 286.5,96.8333 286.5,108.5 Z"/></g>
<g><path style="opacity:1" fill="#59d1e7" d="M 295.5,73.5 C 299.833,73.5 304.167,73.5 308.5,73.5C 308.5,85.1667 308.5,96.8333 308.5,108.5C 307.778,108.918 307.278,109.584 307,110.5C 306.667,109.833 306.333,109.167 306,108.5C 305.601,108.728 305.435,109.062 305.5,109.5C 304.662,109.158 304.328,108.492 304.5,107.5C 300.741,105.609 297.908,106.609 296,110.5C 295.823,98.2577 295.323,86.091 294.5,74C 294.728,73.6012 295.062,73.4346 295.5,73.5 Z"/></g>
<g><path style="opacity:1" fill="#58cfe5" d="M 317.5,73.5 C 327.839,73.3335 338.172,73.5002 348.5,74C 353.466,74.1435 357.133,76.3101 359.5,80.5C 359.958,85.8126 358.292,90.1459 354.5,93.5C 354.196,94.1499 353.863,94.8165 353.5,95.5C 354.456,97.0754 355.123,98.742 355.5,100.5C 356.254,103.091 357.921,104.924 360.5,106C 359.333,106.5 358.5,107.333 358,108.5C 357.583,107.244 356.75,106.577 355.5,106.5C 355.389,105.883 355.056,105.383 354.5,105C 351.571,104.223 348.737,104.39 346,105.5C 345.831,112.191 345.331,118.858 344.5,125.5C 344.415,118.703 344.082,112.036 343.5,105.5C 343.25,103.326 342.25,101.659 340.5,100.5C 339.407,98.6508 338.074,96.9842 336.5,95.5C 334.208,95.7564 332.041,95.4231 330,94.5C 329.667,100.833 329.333,107.167 329,113.5C 328.802,111.618 328.302,109.952 327.5,108.5C 325.692,109.918 325.025,111.918 325.5,114.5C 324.539,116.265 324.205,118.265 324.5,120.5C 323.5,120.5 322.5,120.5 321.5,120.5C 322.19,116.51 322.357,112.51 322,108.5C 320.921,106.606 319.587,106.273 318,107.5C 317.822,96.2571 317.322,85.0905 316.5,74C 316.728,73.6012 317.062,73.4346 317.5,73.5 Z"/></g>
<g><path style="opacity:1" fill="#59d1e6" d="M 370.5,72.5 C 382.569,73.8295 394.735,73.8295 407,72.5C 406.312,75.6841 406.479,78.8508 407.5,82C 399.507,82.4997 391.507,82.6664 383.5,82.5C 383.185,84.2259 383.019,85.8925 383,87.5C 390.162,86.6146 397.329,86.1146 404.5,86C 403.183,88.9365 403.183,91.7699 404.5,94.5C 404.631,95.2389 404.464,95.9056 404,96.5C 401.413,94.9862 398.58,94.3196 395.5,94.5C 393.304,94.5046 391.304,94.838 389.5,95.5C 387.5,95.5 385.5,95.5 383.5,95.5C 383.185,99.3714 383.518,103.038 384.5,106.5C 385.338,106.842 385.672,107.508 385.5,108.5C 384.268,111.184 384.268,114.017 385.5,117C 384.76,119.943 383.76,120.109 382.5,117.5C 383.575,114.562 383.741,111.562 383,108.5C 381.667,107.167 380.333,107.167 379,108.5C 378.201,113.087 378.368,117.587 379.5,122C 378.756,123.039 377.756,123.539 376.5,123.5C 377.397,118.86 377.564,114.194 377,109.5C 376.617,108.944 376.117,108.611 375.5,108.5C 374.15,105.894 372.65,105.894 371,108.5C 370.667,97.5 370.333,86.5 370,75.5C 368.188,73.6964 368.354,72.6964 370.5,72.5 Z"/></g>
<g><path style="opacity:1" fill="#57cadf" d="M 443.5,79.5 C 446.693,85.7477 449.693,92.081 452.5,98.5C 453.038,100.117 453.371,101.784 453.5,103.5C 453.5,104.833 453.5,106.167 453.5,107.5C 449.499,107.803 445.832,108.136 442.5,108.5C 441.677,111.977 441.177,115.644 441,119.5C 440.308,118.975 439.808,118.308 439.5,117.5C 440.614,112.554 440.781,107.554 440,102.5C 435,103.833 430,103.833 425,102.5C 424.505,104.473 424.338,106.473 424.5,108.5C 424.062,109.506 423.396,109.506 422.5,108.5C 419.375,107.521 416.042,107.187 412.5,107.5C 412.813,110.247 412.48,112.914 411.5,115.5C 410.526,113.257 410.192,110.924 410.5,108.5C 410.517,106.435 410.85,104.435 411.5,102.5C 415.07,95.1339 418.07,87.4673 420.5,79.5C 421.167,78.8333 421.833,78.1667 422.5,77.5C 423.391,76.7387 424.058,75.7387 424.5,74.5C 429.833,73.1667 435.167,73.1667 440.5,74.5C 441.275,76.3964 442.275,78.063 443.5,79.5 Z"/></g>
<g><path style="opacity:1" fill="#57cade" d="M 573.5,79.5 C 576.44,85.0459 579.106,90.7126 581.5,96.5C 582.501,99.1716 583.501,101.838 584.5,104.5C 583.226,105.189 583.226,106.023 584.5,107C 580.184,107.694 576.184,108.194 572.5,108.5C 571.677,111.977 571.177,115.644 571,119.5C 570.308,118.975 569.808,118.308 569.5,117.5C 570.614,112.554 570.781,107.554 570,102.5C 565,103.833 560,103.833 555,102.5C 554.505,104.473 554.338,106.473 554.5,108.5C 554.062,109.506 553.396,109.506 552.5,108.5C 549.375,107.521 546.042,107.187 542.5,107.5C 541.833,118.167 541.167,118.167 540.5,107.5C 543.833,98.1667 547.167,88.8333 550.5,79.5C 551.167,78.8333 551.833,78.1667 552.5,77.5C 553.391,76.7387 554.058,75.7387 554.5,74.5C 559.833,73.1667 565.167,73.1667 570.5,74.5C 571.275,76.3964 572.275,78.063 573.5,79.5 Z"/></g>
<g><path style="opacity:1" fill="#59d1e6" d="M 639.5,73.5 C 643.833,73.5 648.167,73.5 652.5,73.5C 652.5,85.1667 652.5,96.8333 652.5,108.5C 651.778,108.918 651.278,109.584 651,110.5C 650.623,109.058 649.79,108.058 648.5,107.5C 645.857,106.021 643.357,106.354 641,108.5C 640.825,112.211 640.325,115.878 639.5,119.5C 638.516,116.572 638.183,113.572 638.5,110.5C 639.47,98.0372 639.803,85.7039 639.5,73.5 Z"/></g>
<g><path style="opacity:1" fill="#2f515b" d="M 317.5,73.5 C 317.5,73.1667 317.5,72.8333 317.5,72.5C 328.838,72.3335 340.172,72.5001 351.5,73C 356.013,73.6834 358.68,76.1834 359.5,80.5C 357.133,76.3101 353.466,74.1435 348.5,74C 338.172,73.5002 327.839,73.3335 317.5,73.5 Z"/></g>
<g><path style="opacity:1" fill="#59d0e6" d="M 487.5,108.5 C 486.779,110.382 485.779,110.715 484.5,109.5C 481.062,108.177 477.229,107.51 473,107.5C 468.985,107.501 465.151,107.835 461.5,108.5C 460.699,113.675 460.533,119.008 461,124.5C 460.667,124.833 460.333,125.167 460,125.5C 459.009,124.57 458.509,123.404 458.5,122C 459.463,105.858 459.797,89.6913 459.5,73.5C 464.179,73.3342 468.845,73.5008 473.5,74C 472.185,82.4408 472.185,90.9408 473.5,99.5C 480.776,98.5345 488.109,98.2012 495.5,98.5C 495.5,101.5 495.5,104.5 495.5,107.5C 492.028,107.16 489.361,107.493 487.5,108.5 Z"/></g>
<g><path style="opacity:1" fill="#59d0e6" d="M 514.5,73.5 C 514.885,77.6952 514.885,82.1952 514.5,87C 514.833,91.1667 515.167,95.3333 515.5,99.5C 516.107,99.3764 516.44,99.0431 516.5,98.5C 523.5,98.5 530.5,98.5 537.5,98.5C 537.5,101.5 537.5,104.5 537.5,107.5C 534.028,107.16 531.361,107.493 529.5,108.5C 528.779,110.382 527.779,110.715 526.5,109.5C 523.062,108.177 519.229,107.51 515,107.5C 510.985,107.501 507.151,107.835 503.5,108.5C 502.699,113.675 502.533,119.008 503,124.5C 502.667,124.833 502.333,125.167 502,125.5C 501.009,124.57 500.509,123.404 500.5,122C 501.463,105.858 501.797,89.6913 501.5,73.5C 505.833,73.5 510.167,73.5 514.5,73.5 Z"/></g>
<g><path style="opacity:1" fill="#4ba6b5" d="M 588.5,74.5 C 588.841,85.7046 589.841,96.7046 591.5,107.5C 590.902,111.74 590.902,116.074 591.5,120.5C 591.167,120.5 590.833,120.5 590.5,120.5C 589.5,120.5 588.5,120.5 587.5,120.5C 588.38,105.186 588.713,89.8525 588.5,74.5 Z"/></g>
<g><path style="opacity:1" fill="#408285" d="M 108.5,81.5 C 106.733,79.2084 105.733,76.5418 105.5,73.5C 98.4921,73.3337 91.4921,73.5004 84.5,74C 85.4878,85.4191 85.8211,96.9191 85.5,108.5C 88.7131,108.19 91.7131,108.523 94.5,109.5C 91.8333,109.5 89.1667,109.5 86.5,109.5C 86.5,110.5 86.5,111.5 86.5,112.5C 85.8106,113.774 84.9772,113.774 84,112.5C 83.5002,101.505 83.3335,90.505 83.5,79.5C 83.7564,77.2075 83.4231,75.0408 82.5,73C 83.0253,72.3076 83.6919,71.8076 84.5,71.5C 91.5,72.8333 98.5,72.8333 105.5,71.5C 106.086,71.7093 106.586,72.0426 107,72.5C 107.502,75.5131 108.002,78.5131 108.5,81.5 Z"/></g>
<g><path style="opacity:1" fill="#42898c" d="M 146.5,72.5 C 146.5,72.8333 146.5,73.1667 146.5,73.5C 146.062,73.4346 145.728,73.6012 145.5,74C 146.323,86.091 146.823,98.2577 147,110.5C 148.908,106.609 151.741,105.609 155.5,107.5C 154.5,107.5 153.5,107.5 152.5,107.5C 149.224,108.122 147.891,110.122 148.5,113.5C 148.663,115.857 148.497,118.19 148,120.5C 145.463,121.507 143.963,120.507 143.5,117.5C 143.846,116.151 144.179,114.817 144.5,113.5C 144.5,101.833 144.5,90.1667 144.5,78.5C 144.192,76.076 144.526,73.7427 145.5,71.5C 146.107,71.6236 146.44,71.9569 146.5,72.5 Z"/></g>
<g><path style="opacity:1" fill="#408487" d="M 168.5,72.5 C 168.5,72.8333 168.5,73.1667 168.5,73.5C 168.062,73.4346 167.728,73.6012 167.5,74C 168.322,85.0905 168.822,96.2571 169,107.5C 170.587,106.273 171.921,106.606 173,108.5C 173.357,112.51 173.19,116.51 172.5,120.5C 173.5,120.5 174.5,120.5 175.5,120.5C 175.205,118.265 175.539,116.265 176.5,114.5C 176.663,116.857 176.497,119.19 176,121.5C 174.951,122.517 173.784,122.684 172.5,122C 171.279,118.554 171.279,115.054 172.5,111.5C 172.547,110 171.881,109 170.5,108.5C 170.218,111.057 170.051,113.723 170,116.5C 169.329,117.252 168.496,117.586 167.5,117.5C 166.305,117.134 165.639,116.301 165.5,115C 166.47,102.871 166.804,90.7046 166.5,78.5C 166.192,76.076 166.526,73.7427 167.5,71.5C 168.107,71.6236 168.44,71.9569 168.5,72.5 Z"/></g>
<g><path style="opacity:1" fill="#42888c" d="M 295.5,72.5 C 295.5,72.8333 295.5,73.1667 295.5,73.5C 295.062,73.4346 294.728,73.6012 294.5,74C 295.323,86.091 295.823,98.2577 296,110.5C 297.908,106.609 300.741,105.609 304.5,107.5C 303.5,107.5 302.5,107.5 301.5,107.5C 298.224,108.122 296.891,110.122 297.5,113.5C 297.663,115.857 297.497,118.19 297,120.5C 294.463,121.507 292.963,120.507 292.5,117.5C 292.846,116.151 293.179,114.817 293.5,113.5C 293.5,101.833 293.5,90.1667 293.5,78.5C 293.192,76.076 293.526,73.7427 294.5,71.5C 295.107,71.6236 295.44,71.9569 295.5,72.5 Z"/></g>
<g><path style="opacity:1" fill="#408487" d="M 317.5,72.5 C 317.5,72.8333 317.5,73.1667 317.5,73.5C 317.062,73.4346 316.728,73.6012 316.5,74C 317.322,85.0905 317.822,96.2571 318,107.5C 319.587,106.273 320.921,106.606 322,108.5C 322.357,112.51 322.19,116.51 321.5,120.5C 322.5,120.5 323.5,120.5 324.5,120.5C 324.205,118.265 324.539,116.265 325.5,114.5C 325.663,116.857 325.497,119.19 325,121.5C 323.951,122.517 322.784,122.684 321.5,122C 320.279,118.554 320.279,115.054 321.5,111.5C 321.547,110 320.881,109 319.5,108.5C 319.218,111.057 319.051,113.723 319,116.5C 318.329,117.252 317.496,117.586 316.5,117.5C 315.305,117.134 314.639,116.301 314.5,115C 315.47,102.871 315.804,90.7046 315.5,78.5C 315.192,76.076 315.526,73.7427 316.5,71.5C 317.107,71.6236 317.44,71.9569 317.5,72.5 Z"/></g>
<g><path style="opacity:1" fill="#428b8d" d="M 639.5,72.5 C 639.5,72.8333 639.5,73.1667 639.5,73.5C 639.803,85.7039 639.47,98.0372 638.5,110.5C 638.167,110.5 637.833,110.5 637.5,110.5C 637.5,100.5 637.5,90.5 637.5,80.5C 637.183,77.4281 637.516,74.4281 638.5,71.5C 639.107,71.6236 639.44,71.9569 639.5,72.5 Z"/></g>
<g><path style="opacity:1" fill="#408686" d="M 370.5,72.5 C 368.354,72.6964 368.188,73.6964 370,75.5C 370.333,86.5 370.667,97.5 371,108.5C 372.65,105.894 374.15,105.894 375.5,108.5C 374.448,108.351 373.448,108.517 372.5,109C 371.657,110.787 371.49,112.62 372,114.5C 371.047,116.373 369.88,116.706 368.5,115.5C 368.5,114.5 368.5,113.5 368.5,112.5C 368.5,101.5 368.5,90.5 368.5,79.5C 368.62,77.2655 368.287,75.0989 367.5,73C 368.275,70.0161 369.275,69.8494 370.5,72.5 Z"/></g>
<g><path style="opacity:0.969" fill="#31575d" d="M 138.5,78.5 C 138.5,88.5 138.5,98.5 138.5,108.5C 134.711,108.676 130.711,108.676 126.5,108.5C 129.962,107.518 133.629,107.185 137.5,107.5C 137.5,96.1667 137.5,84.8333 137.5,73.5C 130.5,73.5 123.5,73.5 116.5,73.5C 115.252,79.3359 113.419,85.0025 111,90.5C 110.023,88.26 109.523,85.9267 109.5,83.5C 110.222,83.9175 110.722,84.5842 111,85.5C 113.305,80.9178 115.305,76.2511 117,71.5C 123.803,72.8189 130.637,72.8189 137.5,71.5C 138.308,71.8076 138.975,72.3076 139.5,73C 138.594,74.6995 138.261,76.5328 138.5,78.5 Z"/></g>
<g><path style="opacity:0.969" fill="#305356" d="M 160.5,79.5 C 160.5,89.1667 160.5,98.8333 160.5,108.5C 160.167,108.5 159.833,108.5 159.5,108.5C 159.5,96.8333 159.5,85.1667 159.5,73.5C 155.167,73.5 150.833,73.5 146.5,73.5C 146.5,73.1667 146.5,72.8333 146.5,72.5C 150.902,72.7719 155.235,72.4386 159.5,71.5C 160.5,71.8333 161.167,72.5 161.5,73.5C 160.652,75.4086 160.318,77.4086 160.5,79.5 Z"/></g>
<g><path style="opacity:0.941" fill="#335e66" d="M 287.5,78.5 C 287.5,88.5 287.5,98.5 287.5,108.5C 287.167,108.5 286.833,108.5 286.5,108.5C 286.5,96.8333 286.5,85.1667 286.5,73.5C 279.082,73.5936 271.748,73.4269 264.5,73C 265.591,75.0639 265.758,77.2305 265,79.5C 263.059,83.0477 261.393,86.7143 260,90.5C 258.312,85.6215 256.478,80.7882 254.5,76C 255.187,74.8382 255.353,73.6716 255,72.5C 247.501,73.6153 240.001,73.782 232.5,73C 233.126,73.7504 233.626,74.5838 234,75.5C 234.5,86.495 234.667,97.495 234.5,108.5C 237.85,108.335 241.183,108.502 244.5,109C 245.274,111.405 245.774,113.905 246,116.5C 246.494,114.866 246.66,113.199 246.5,111.5C 246.833,111.5 247.167,111.5 247.5,111.5C 249.062,113.901 248.729,115.901 246.5,117.5C 244.846,115.44 243.846,112.94 243.5,110C 240.854,109.503 238.187,109.336 235.5,109.5C 235.5,110.5 235.5,111.5 235.5,112.5C 234.833,113.833 234.167,113.833 233.5,112.5C 233.667,100.495 233.5,88.4954 233,76.5C 231.173,74.4139 231.173,72.4139 233,70.5C 233.75,71.1258 234.584,71.6258 235.5,72C 241.5,72.6667 247.5,72.6667 253.5,72C 254.025,71.3076 254.692,70.8076 255.5,70.5C 255.816,75.8738 257.316,80.8738 260,85.5C 261.252,83.9991 262.252,82.3325 263,80.5C 264.006,77.0836 264.673,73.7502 265,70.5C 265.75,71.1258 266.584,71.6258 267.5,72C 273.5,72.6667 279.5,72.6667 285.5,72C 287.088,69.957 288.421,70.1236 289.5,72.5C 288.253,74.323 287.586,76.323 287.5,78.5 Z"/></g>
<g><path style="opacity:0.969" fill="#305356" d="M 309.5,79.5 C 309.5,89.1667 309.5,98.8333 309.5,108.5C 309.167,108.5 308.833,108.5 308.5,108.5C 308.5,96.8333 308.5,85.1667 308.5,73.5C 304.167,73.5 299.833,73.5 295.5,73.5C 295.5,73.1667 295.5,72.8333 295.5,72.5C 299.902,72.7719 304.235,72.4386 308.5,71.5C 309.5,71.8333 310.167,72.5 310.5,73.5C 309.652,75.4086 309.318,77.4086 309.5,79.5 Z"/></g>
<g><path style="opacity:0.996" fill="#71f9b7" d="M 166.5,78.5 C 166.804,90.7046 166.47,102.871 165.5,115C 165.639,116.301 166.305,117.134 167.5,117.5C 169.437,120.499 169.937,123.833 169,127.5C 165.463,128.818 163.629,127.485 163.5,123.5C 162.5,123.5 161.5,123.5 160.5,123.5C 160.5,118.5 160.5,113.5 160.5,108.5C 160.5,98.8333 160.5,89.1667 160.5,79.5C 162.379,78.6586 164.379,78.3253 166.5,78.5 Z"/></g>
<g><path style="opacity:0.997" fill="#70f9b4" d="M 287.5,78.5 C 289.5,78.5 291.5,78.5 293.5,78.5C 293.5,90.1667 293.5,101.833 293.5,113.5C 292.542,113.953 291.708,114.619 291,115.5C 290.501,119.486 290.334,123.486 290.5,127.5C 288.856,127.714 287.356,127.38 286,126.5C 285.776,120.415 286.276,114.415 287.5,108.5C 287.5,98.5 287.5,88.5 287.5,78.5 Z"/></g>
<g><path style="opacity:0.996" fill="#71f9b7" d="M 315.5,78.5 C 315.804,90.7046 315.47,102.871 314.5,115C 314.639,116.301 315.305,117.134 316.5,117.5C 318.437,120.499 318.937,123.833 318,127.5C 314.463,128.818 312.629,127.485 312.5,123.5C 311.5,123.5 310.5,123.5 309.5,123.5C 309.5,118.5 309.5,113.5 309.5,108.5C 309.5,98.8333 309.5,89.1667 309.5,79.5C 311.379,78.6586 313.379,78.3253 315.5,78.5 Z"/></g>
<g><path style="opacity:0.996" fill="#71fcb8" d="M 368.5,79.5 C 368.5,90.5 368.5,101.5 368.5,112.5C 367.167,112.5 365.833,112.5 364.5,112.5C 364.662,110.473 364.495,108.473 364,106.5C 363.617,105.944 363.117,105.611 362.5,105.5C 362.5,96.8333 362.5,88.1667 362.5,79.5C 364.5,79.5 366.5,79.5 368.5,79.5 Z"/></g>
<g><path style="opacity:0.988" fill="#6ff3b6" d="M 420.5,79.5 C 418.07,87.4673 415.07,95.1339 411.5,102.5C 411.631,101.624 411.298,100.957 410.5,100.5C 409.866,102.772 408.532,104.439 406.5,105.5C 410.025,96.9271 413.359,88.2604 416.5,79.5C 417.833,79.5 419.167,79.5 420.5,79.5 Z"/></g>
<g><path style="opacity:0.994" fill="#70f8b6" d="M 458.5,79.5 C 458.5,91.5 458.5,103.5 458.5,115.5C 457.5,115.5 456.5,115.5 455.5,115.5C 456.075,121.167 456.242,126.833 456,132.5C 454.384,133.801 452.884,133.801 451.5,132.5C 452.822,132.67 453.989,132.337 455,131.5C 455.43,128.808 455.263,126.141 454.5,123.5C 453.325,123.281 452.325,123.614 451.5,124.5C 450.626,126.747 450.292,129.08 450.5,131.5C 449.844,130.378 449.511,129.045 449.5,127.5C 451.182,121.31 451.849,114.977 451.5,108.5C 457.426,109.53 458.093,107.864 453.5,103.5C 453.371,101.784 453.038,100.117 452.5,98.5C 452.5,92.1667 452.5,85.8333 452.5,79.5C 454.5,79.5 456.5,79.5 458.5,79.5 Z"/></g>
<g><path style="opacity:0.994" fill="#71fbb7" d="M 587.5,79.5 C 587.828,90.6794 587.495,101.679 586.5,112.5C 583.5,112.833 582.167,111.5 582.5,108.5C 586.83,109.471 587.497,108.138 584.5,104.5C 583.501,101.838 582.501,99.1716 581.5,96.5C 581.5,90.8333 581.5,85.1667 581.5,79.5C 583.5,79.5 585.5,79.5 587.5,79.5 Z"/></g>
<g><path style="opacity:1" fill="#346165" d="M 615.5,84.5 C 615.5,82.8333 615.5,81.1667 615.5,79.5C 615.682,77.4086 615.348,75.4086 614.5,73.5C 614.833,72.5 615.5,71.8333 616.5,71.5C 621.48,72.4318 626.314,72.7652 631,72.5C 630.188,84.4973 630.354,96.4973 631.5,108.5C 631.5,108.833 631.5,109.167 631.5,109.5C 628.873,108.908 626.206,108.575 623.5,108.5C 621.5,108.5 619.5,108.5 617.5,108.5C 621.298,107.517 625.298,107.183 629.5,107.5C 629.5,96.1667 629.5,84.8333 629.5,73.5C 625.167,73.5 620.833,73.5 616.5,73.5C 616.5,77.8333 616.5,82.1667 616.5,86.5C 611.5,86.5 606.5,86.5 601.5,86.5C 601.203,82.2325 601.536,78.0659 602.5,74C 597.648,73.1849 592.981,73.3516 588.5,74.5C 588.713,89.8525 588.38,105.186 587.5,120.5C 588.5,120.5 589.5,120.5 590.5,120.5C 589.432,121.434 588.099,121.768 586.5,121.5C 586.5,118.5 586.5,115.5 586.5,112.5C 587.495,101.679 587.828,90.6794 587.5,79.5C 587.263,76.7884 587.263,74.2884 587.5,72C 592.477,72.7697 597.477,72.603 602.5,71.5C 603.308,71.8076 603.975,72.3076 604.5,73C 603.54,76.73 603.207,80.5633 603.5,84.5C 607.667,85.4048 611.667,85.4048 615.5,84.5 Z"/></g>
<g><path style="opacity:1" fill="#5ad3e9" d="M 588.5,74.5 C 592.981,73.3516 597.648,73.1849 602.5,74C 601.536,78.0659 601.203,82.2325 601.5,86.5C 606.5,86.5 611.5,86.5 616.5,86.5C 616.5,82.1667 616.5,77.8333 616.5,73.5C 620.833,73.5 625.167,73.5 629.5,73.5C 629.5,84.8333 629.5,96.1667 629.5,107.5C 625.298,107.183 621.298,107.517 617.5,108.5C 617.103,109.525 616.437,109.692 615.5,109C 614.402,108.23 614.402,107.397 615.5,106.5C 616.483,102.702 616.817,98.7016 616.5,94.5C 611.167,94.5 605.833,94.5 600.5,94.5C 600.666,99.5111 600.499,104.511 600,109.5C 597.489,106.701 594.655,106.035 591.5,107.5C 589.841,96.7046 588.841,85.7046 588.5,74.5 Z"/></g>
<g><path style="opacity:0.99" fill="#71fbb9" d="M 615.5,79.5 C 615.5,81.1667 615.5,82.8333 615.5,84.5C 613.5,84.5 611.5,84.5 609.5,84.5C 609.5,82.8333 609.5,81.1667 609.5,79.5C 611.5,79.5 613.5,79.5 615.5,79.5 Z"/></g>
<g><path style="opacity:0.997" fill="#6efab0" d="M 637.5,80.5 C 637.5,90.5 637.5,100.5 637.5,110.5C 637.5,111.5 637.5,112.5 637.5,113.5C 636.85,113.804 636.183,114.137 635.5,114.5C 634.508,118.783 634.174,123.116 634.5,127.5C 632.856,127.714 631.356,127.38 630,126.5C 630.161,120.83 630.661,115.163 631.5,109.5C 631.5,109.167 631.5,108.833 631.5,108.5C 632.33,99.676 632.83,90.676 633,81.5C 634.356,80.6198 635.856,80.2865 637.5,80.5 Z"/></g>
<g><path style="opacity:0.687" fill="#70edb4" d="M 232.5,80.5 C 230.565,79.8505 228.565,79.5172 226.5,79.5C 226.168,92.5171 226.501,105.517 227.5,118.5C 228.182,117.757 228.849,117.091 229.5,116.5C 229.5,117.5 229.5,118.5 229.5,119.5C 228.167,119.5 226.833,119.5 225.5,119.5C 225.781,105.464 225.448,91.4638 224.5,77.5C 227.811,77.3072 230.478,78.3072 232.5,80.5 Z"/></g>
<g><path style="opacity:0.916" fill="#38676a" d="M 493.5,97.5 C 495.342,95.9663 496.675,96.2997 497.5,98.5C 496.201,101.699 496.201,104.865 497.5,108C 496.318,109.768 494.985,109.935 493.5,108.5C 491.833,108.5 490.167,108.5 488.5,108.5C 488.167,108.5 487.833,108.5 487.5,108.5C 489.361,107.493 492.028,107.16 495.5,107.5C 495.5,104.5 495.5,101.5 495.5,98.5C 488.109,98.2012 480.776,98.5345 473.5,99.5C 472.185,90.9408 472.185,82.4408 473.5,74C 468.845,73.5008 464.179,73.3342 459.5,73.5C 459.797,89.6913 459.463,105.858 458.5,122C 458.509,123.404 459.009,124.57 460,125.5C 460.333,125.167 460.667,124.833 461,124.5C 460.533,119.008 460.699,113.675 461.5,108.5C 461.5,110.5 461.5,112.5 461.5,114.5C 462.8,118.334 462.8,122.168 461.5,126C 460.216,126.684 459.049,126.517 458,125.5C 457.253,122.076 457.42,118.743 458.5,115.5C 458.5,103.5 458.5,91.5 458.5,79.5C 458.756,77.2075 458.423,75.0408 457.5,73C 458.025,72.3076 458.692,71.8076 459.5,71.5C 464.167,72.8333 468.833,72.8333 473.5,71.5C 474.308,71.8076 474.975,72.3076 475.5,73C 474.518,81.081 474.184,89.2476 474.5,97.5C 480.833,97.5 487.167,97.5 493.5,97.5 Z"/></g>
<g><path style="opacity:1" fill="#2f5556" d="M 514.5,72.5 C 514.5,72.8333 514.5,73.1667 514.5,73.5C 510.167,73.5 505.833,73.5 501.5,73.5C 501.797,89.6913 501.463,105.858 500.5,122C 500.509,123.404 501.009,124.57 502,125.5C 502.333,125.167 502.667,124.833 503,124.5C 502.533,119.008 502.699,113.675 503.5,108.5C 503.5,110.5 503.5,112.5 503.5,114.5C 504.589,118.078 504.755,121.745 504,125.5C 502.667,126.833 501.333,126.833 500,125.5C 499.322,121.779 499.489,118.112 500.5,114.5C 500.5,102.5 500.5,90.5 500.5,78.5C 500.739,76.5328 500.406,74.6995 499.5,73C 500.025,72.3076 500.692,71.8076 501.5,71.5C 505.765,72.4386 510.098,72.7719 514.5,72.5 Z"/></g>
<g><path style="opacity:0.916" fill="#427c80" d="M 516.5,97.5 C 516.5,97.8333 516.5,98.1667 516.5,98.5C 516.44,99.0431 516.107,99.3764 515.5,99.5C 515.167,95.3333 514.833,91.1667 514.5,87C 514.885,82.1952 514.885,77.6952 514.5,73.5C 514.5,73.1667 514.5,72.8333 514.5,72.5C 515.497,71.2875 516.497,71.4542 517.5,73C 516.518,81.081 516.184,89.2476 516.5,97.5 Z"/></g>
<g><path style="opacity:1" fill="#3f807b" d="M 187.5,81.5 C 190.883,81.2572 194.049,81.9239 197,83.5C 197.795,86.3832 196.629,87.8832 193.5,88C 189.167,88.6667 184.833,88.6667 180.5,88C 181.406,86.3005 181.739,84.4672 181.5,82.5C 183.735,82.7947 185.735,82.4614 187.5,81.5 Z"/></g>
<g><path style="opacity:0.999" fill="#70feb6" d="M 182.5,83.5 C 186.833,83.5 191.167,83.5 195.5,83.5C 195.5,84.5 195.5,85.5 195.5,86.5C 191.167,86.5 186.833,86.5 182.5,86.5C 182.5,85.5 182.5,84.5 182.5,83.5 Z"/></g>
<g><path style="opacity:1" fill="#21313f" d="M 250.5,94.5 C 249.207,93.158 248.374,91.4913 248,89.5C 247.5,96.8258 247.334,104.159 247.5,111.5C 247.167,111.5 246.833,111.5 246.5,111.5C 246.334,102.494 246.5,93.4938 247,84.5C 248.858,87.5716 250.024,90.905 250.5,94.5 Z"/></g>
<g><path style="opacity:1" fill="#3f807b" d="M 336.5,81.5 C 339.883,81.2572 343.049,81.9239 346,83.5C 346.795,86.3832 345.629,87.8832 342.5,88C 338.167,88.6667 333.833,88.6667 329.5,88C 330.406,86.3005 330.739,84.4672 330.5,82.5C 332.735,82.7947 334.735,82.4614 336.5,81.5 Z"/></g>
<g><path style="opacity:0.999" fill="#70feb6" d="M 331.5,83.5 C 335.833,83.5 340.167,83.5 344.5,83.5C 344.5,84.5 344.5,85.5 344.5,86.5C 340.167,86.5 335.833,86.5 331.5,86.5C 331.5,85.5 331.5,84.5 331.5,83.5 Z"/></g>
<g><path style="opacity:1" fill="#335f66" d="M 404.5,94.5 C 403.183,91.7699 403.183,88.9365 404.5,86C 397.329,86.1146 390.162,86.6146 383,87.5C 383.019,85.8925 383.185,84.2259 383.5,82.5C 391.507,82.6664 399.507,82.4997 407.5,82C 406.479,78.8508 406.312,75.6841 407,72.5C 394.735,73.8295 382.569,73.8295 370.5,72.5C 382.171,72.6665 393.838,72.4999 405.5,72C 407.246,70.0183 408.579,70.185 409.5,72.5C 408.167,76.1667 408.167,79.8333 409.5,83.5C 407.575,83.837 406.075,85.1703 405,87.5C 404.503,89.8098 404.337,92.1432 404.5,94.5 Z"/></g>
<g><path style="opacity:0.999" fill="#6ae9ae" d="M 384.5,83.5 C 390.842,83.3338 397.175,83.5005 403.5,84C 399.922,85.0372 396.256,85.5372 392.5,85.5C 389.41,85.4783 386.743,84.8117 384.5,83.5 Z"/></g>
<g><path style="opacity:1" fill="#21323f" d="M 98.5,90.5 C 98.5,97.5 98.5,104.5 98.5,111.5C 99.6813,114.638 99.6813,117.638 98.5,120.5C 97.1367,106.245 97.1367,96.2449 98.5,90.5 Z"/></g>
<g><path style="opacity:1" fill="#305a56" d="M 275.5,108.5 C 275.5,110.5 275.5,112.5 275.5,114.5C 274.5,114.5 273.5,114.5 272.5,114.5C 272.826,106.316 272.492,98.3159 271.5,90.5C 271.231,88.5714 271.731,86.9047 273,85.5C 273.333,94.8333 273.667,104.167 274,113.5C 274.198,111.618 274.698,109.952 275.5,108.5 Z"/></g>
<g><path style="opacity:1" fill="#305858" d="M 126.5,109.5 C 127.005,112.841 127.172,116.174 127,119.5C 122.633,120.575 121.466,118.908 123.5,114.5C 123.666,106.826 123.5,99.1594 123,91.5C 122.617,92.056 122.117,92.3893 121.5,92.5C 122.32,90.1877 123.153,87.8543 124,85.5C 124.333,96.8333 124.667,108.167 125,119.5C 125.5,119 126,118.5 126.5,118C 125.183,115.063 125.183,112.23 126.5,109.5 Z"/></g>
<g><path style="opacity:0.989" fill="#6ff4b4" d="M 550.5,79.5 C 547.167,88.8333 543.833,98.1667 540.5,107.5C 539.252,106.666 538.585,105.333 538.5,103.5C 538.672,101.452 539.005,99.4523 539.5,97.5C 540.219,92.7254 542.052,88.3921 545,84.5C 545.495,82.5273 545.662,80.5273 545.5,78.5C 547.415,78.2155 549.081,78.5489 550.5,79.5 Z"/></g>
<g><path style="opacity:1" fill="#6cf3b0" d="M 58.5,89.5 C 58.8333,91.5 59.1667,93.5 59.5,95.5C 57.8333,95.5 56.1667,95.5 54.5,95.5C 54.5,94.5 54.5,93.5 54.5,92.5C 56.0672,91.3192 56.9005,89.6526 57,87.5C 57.2784,88.4158 57.7784,89.0825 58.5,89.5 Z"/></g>
<g><path style="opacity:1" fill="#6cf3b0" d="M 433.5,89.5 C 433.833,91.5 434.167,93.5 434.5,95.5C 432.833,95.5 431.167,95.5 429.5,95.5C 429.5,94.5 429.5,93.5 429.5,92.5C 431.067,91.3192 431.901,89.6526 432,87.5C 432.278,88.4158 432.778,89.0825 433.5,89.5 Z"/></g>
<g><path style="opacity:0.997" fill="#6ff8b3" d="M 500.5,78.5 C 500.5,90.5 500.5,102.5 500.5,114.5C 499.178,114.33 498.011,114.663 497,115.5C 496.612,118.849 496.779,122.183 497.5,125.5C 496.542,125.047 495.708,124.381 495,123.5C 492.977,125.769 492.144,128.436 492.5,131.5C 491.848,130.551 491.514,129.385 491.5,128C 492.538,121.532 493.204,115.032 493.5,108.5C 494.985,109.935 496.318,109.768 497.5,108C 496.201,104.865 496.201,101.699 497.5,98.5C 496.675,96.2997 495.342,95.9663 493.5,97.5C 493.5,91.1667 493.5,84.8333 493.5,78.5C 495.833,78.5 498.167,78.5 500.5,78.5 Z"/></g>
<g><path style="opacity:1" fill="#6cf3b0" d="M 563.5,89.5 C 563.833,91.5 564.167,93.5 564.5,95.5C 562.833,95.5 561.167,95.5 559.5,95.5C 559.5,94.5 559.5,93.5 559.5,92.5C 561.067,91.3192 561.901,89.6526 562,87.5C 562.278,88.4158 562.778,89.0825 563.5,89.5 Z"/></g>
<g><path style="opacity:0.935" fill="#2d4950" d="M 653.5,108.5 C 653.167,108.5 652.833,108.5 652.5,108.5C 652.5,96.8333 652.5,85.1667 652.5,73.5C 648.167,73.5 643.833,73.5 639.5,73.5C 639.5,73.1667 639.5,72.8333 639.5,72.5C 643.902,72.7719 648.235,72.4386 652.5,71.5C 653.5,71.8333 654.167,72.5 654.5,73.5C 653.521,85.1158 653.188,96.7824 653.5,108.5 Z"/></g>
<g><path style="opacity:0.898" fill="#39656a" d="M 210.5,80.5 C 211.634,82.9664 211.801,85.633 211,88.5C 210.502,90.5444 209.335,91.8777 207.5,92.5C 209.721,88.8323 210.721,84.8323 210.5,80.5 Z"/></g>
<g><path style="opacity:0.929" fill="#3c6c6f" d="M 359.5,80.5 C 361.094,84.8846 360.427,89.0513 357.5,93C 356.552,93.4828 355.552,93.6495 354.5,93.5C 358.292,90.1459 359.958,85.8126 359.5,80.5 Z"/></g>
<g><path style="opacity:0.998" fill="#6ff8b4" d="M 250.5,94.5 C 252.941,100.225 253.941,106.225 253.5,112.5C 252.791,113.404 251.791,113.737 250.5,113.5C 250.66,115.199 250.494,116.866 250,118.5C 248.244,119.985 247.077,119.652 246.5,117.5C 248.729,115.901 249.062,113.901 247.5,111.5C 247.334,104.159 247.5,96.8258 248,89.5C 248.374,91.4913 249.207,93.158 250.5,94.5 Z"/></g>
<g><path style="opacity:0.997" fill="#70fbb5" d="M 98.5,90.5 C 98.8333,90.5 99.1667,90.5 99.5,90.5C 100.403,94.8892 102.069,98.8892 104.5,102.5C 104.5,105.5 104.5,108.5 104.5,111.5C 102.5,111.5 100.5,111.5 98.5,111.5C 98.5,104.5 98.5,97.5 98.5,90.5 Z"/></g>
<g><path style="opacity:0.995" fill="#6ff6b5" d="M 123.5,114.5 C 122.5,114.5 121.5,114.5 120.5,114.5C 120.5,118.5 120.5,122.5 120.5,126.5C 118.901,126.768 117.568,126.434 116.5,125.5C 116.833,124.833 117.167,124.167 117.5,123.5C 117.477,115.98 117.81,108.313 118.5,100.5C 120.02,98.1098 121.02,95.4432 121.5,92.5C 122.117,92.3893 122.617,92.056 123,91.5C 123.5,99.1594 123.666,106.826 123.5,114.5 Z"/></g>
<g><path style="opacity:1" fill="#376d6f" d="M 99.5,90.5 C 101.931,94.1108 103.597,98.1108 104.5,102.5C 102.069,98.8892 100.403,94.8892 99.5,90.5 Z"/></g>
<g><path style="opacity:1" fill="#346a77" d="M 389.5,95.5 C 391.304,94.838 393.304,94.5046 395.5,94.5C 398.58,94.3196 401.413,94.9862 404,96.5C 404.464,95.9056 404.631,95.2389 404.5,94.5C 405.404,95.209 405.737,96.209 405.5,97.5C 400.304,95.9132 394.97,95.2465 389.5,95.5 Z"/></g>
<g><path style="opacity:1" fill="#35656f" d="M 615.5,106.5 C 615.5,102.833 615.5,99.1667 615.5,95.5C 611.167,95.5 606.833,95.5 602.5,95.5C 602.5,97.1667 602.5,98.8333 602.5,100.5C 602.335,108.023 602.668,115.523 603.5,123C 603.333,124.5 603.167,126 603,127.5C 601.708,128.791 600.542,128.791 599.5,127.5C 598.765,121.996 598.598,116.329 599,110.5C 597.729,109.117 596.229,108.117 594.5,107.5C 593.5,107.5 592.5,107.5 591.5,107.5C 594.655,106.035 597.489,106.701 600,109.5C 600.499,104.511 600.666,99.5111 600.5,94.5C 605.833,94.5 611.167,94.5 616.5,94.5C 616.817,98.7016 616.483,102.702 615.5,106.5 Z"/></g>
<g><path style="opacity:1" fill="#294751" d="M 58.5,89.5 C 59.9142,91.8673 61.2475,94.3673 62.5,97C 59.2312,96.8435 55.8979,96.5101 52.5,96C 53.0848,94.6976 53.7515,93.531 54.5,92.5C 54.5,93.5 54.5,94.5 54.5,95.5C 56.1667,95.5 57.8333,95.5 59.5,95.5C 59.1667,93.5 58.8333,91.5 58.5,89.5 Z"/></g>
<g><path style="opacity:1" fill="#294751" d="M 433.5,89.5 C 434.914,91.8673 436.248,94.3673 437.5,97C 434.231,96.8435 430.898,96.5101 427.5,96C 428.085,94.6976 428.751,93.531 429.5,92.5C 429.5,93.5 429.5,94.5 429.5,95.5C 431.167,95.5 432.833,95.5 434.5,95.5C 434.167,93.5 433.833,91.5 433.5,89.5 Z"/></g>
<g><path style="opacity:1" fill="#294751" d="M 563.5,89.5 C 564.914,91.8673 566.248,94.3673 567.5,97C 564.231,96.8435 560.898,96.5101 557.5,96C 558.085,94.6976 558.751,93.531 559.5,92.5C 559.5,93.5 559.5,94.5 559.5,95.5C 561.167,95.5 562.833,95.5 564.5,95.5C 564.167,93.5 563.833,91.5 563.5,89.5 Z"/></g>
<g><path style="opacity:0.951" fill="#69f3a3" d="M 45.5,79.5 C 41.8772,89.0762 38.5439,98.7429 35.5,108.5C 35.1667,108.5 34.8333,108.5 34.5,108.5C 34.4827,106.972 33.816,106.472 32.5,107C 30.2196,110.04 28.2196,113.206 26.5,116.5C 30.9799,103.723 35.6466,91.0563 40.5,78.5C 42.4147,78.2155 44.0813,78.5489 45.5,79.5 Z"/></g>
<g><path style="opacity:0.996" fill="#70f7b6" d="M 187.5,95.5 C 189.074,96.9842 190.407,98.6508 191.5,100.5C 192.743,102.997 193.41,105.664 193.5,108.5C 191.926,114.063 191.259,119.73 191.5,125.5C 190.735,124.34 189.735,123.34 188.5,122.5C 186.871,125.266 186.205,128.266 186.5,131.5C 186.256,124.348 186.089,117.014 186,109.5C 184.974,106.761 183.474,104.428 181.5,102.5C 181.5,100.5 181.5,98.5 181.5,96.5C 183.735,96.7947 185.735,96.4614 187.5,95.5 Z"/></g>
<g><path style="opacity:0.954" fill="#69f9a3" d="M 232.5,80.5 C 232.172,91.3464 232.506,102.013 233.5,112.5C 234.167,113.833 234.833,113.833 235.5,112.5C 236.779,111.032 238.446,110.365 240.5,110.5C 240.833,115.167 241.167,119.833 241.5,124.5C 239.856,124.714 238.356,124.38 237,123.5C 236.503,121.19 236.337,118.857 236.5,116.5C 234.167,116.5 231.833,116.5 229.5,116.5C 228.849,117.091 228.182,117.757 227.5,118.5C 226.501,105.517 226.168,92.5171 226.5,79.5C 228.565,79.5172 230.565,79.8505 232.5,80.5 Z"/></g>
<g><path style="opacity:0.996" fill="#70f7b6" d="M 336.5,95.5 C 338.074,96.9842 339.407,98.6508 340.5,100.5C 341.743,102.997 342.41,105.664 342.5,108.5C 340.926,114.063 340.259,119.73 340.5,125.5C 339.735,124.34 338.735,123.34 337.5,122.5C 335.871,125.266 335.205,128.266 335.5,131.5C 335.256,124.348 335.089,117.014 335,109.5C 333.974,106.761 332.474,104.428 330.5,102.5C 330.5,100.5 330.5,98.5 330.5,96.5C 332.735,96.7947 334.735,96.4614 336.5,95.5 Z"/></g>
<g><path style="opacity:0.999" fill="#34615a" d="M 389.5,95.5 C 388.081,96.4511 386.415,96.7845 384.5,96.5C 384.5,99.8333 384.5,103.167 384.5,106.5C 383.518,103.038 383.185,99.3714 383.5,95.5C 385.5,95.5 387.5,95.5 389.5,95.5 Z"/></g>
<g><path style="opacity:0.996" fill="#6df7ae" d="M 615.5,106.5 C 614.402,107.397 614.402,108.23 615.5,109C 616.437,109.692 617.103,109.525 617.5,108.5C 619.5,108.5 621.5,108.5 623.5,108.5C 623.5,110.5 623.5,112.5 623.5,114.5C 618.833,114.5 614.167,114.5 609.5,114.5C 609.5,109.833 609.5,105.167 609.5,100.5C 607.167,100.5 604.833,100.5 602.5,100.5C 602.5,98.8333 602.5,97.1667 602.5,95.5C 606.833,95.5 611.167,95.5 615.5,95.5C 615.5,99.1667 615.5,102.833 615.5,106.5 Z"/></g>
<g><path style="opacity:0.914" fill="#2c4a51" d="M 539.5,97.5 C 539.005,99.4523 538.672,101.452 538.5,103.5C 538.585,105.333 539.252,106.666 540.5,107.5C 541.167,118.167 541.833,118.167 542.5,107.5C 546.042,107.187 549.375,107.521 552.5,108.5C 549.5,108.5 546.5,108.5 543.5,108.5C 543.5,110.833 543.5,113.167 543.5,115.5C 542.432,116.434 541.099,116.768 539.5,116.5C 539.5,114.833 539.5,113.167 539.5,111.5C 539.649,110.448 539.483,109.448 539,108.5C 537.855,109.684 536.688,109.684 535.5,108.5C 533.833,108.5 532.167,108.5 530.5,108.5C 530.167,108.5 529.833,108.5 529.5,108.5C 531.361,107.493 534.028,107.16 537.5,107.5C 537.5,104.5 537.5,101.5 537.5,98.5C 530.5,98.5 523.5,98.5 516.5,98.5C 516.5,98.1667 516.5,97.8333 516.5,97.5C 524.377,97.4165 532.043,97.4165 539.5,97.5 Z"/></g>
<g><path style="opacity:0.961" fill="#2f5256" d="M 187.5,95.5 C 185.735,96.4614 183.735,96.7947 181.5,96.5C 181.5,98.5 181.5,100.5 181.5,102.5C 181.666,106.514 181.499,110.514 181,114.5C 180.333,115.833 179.667,115.833 179,114.5C 178.505,112.527 178.338,110.527 178.5,108.5C 179.302,109.952 179.802,111.618 180,113.5C 180.333,107.167 180.667,100.833 181,94.5C 183.041,95.4231 185.208,95.7564 187.5,95.5 Z"/></g>
<g><path style="opacity:0.961" fill="#2f5256" d="M 336.5,95.5 C 334.735,96.4614 332.735,96.7947 330.5,96.5C 330.5,98.5 330.5,100.5 330.5,102.5C 330.666,106.514 330.499,110.514 330,114.5C 329.333,115.833 328.667,115.833 328,114.5C 327.505,112.527 327.338,110.527 327.5,108.5C 328.302,109.952 328.802,111.618 329,113.5C 329.333,107.167 329.667,100.833 330,94.5C 332.041,95.4231 334.208,95.7564 336.5,95.5 Z"/></g>
<g><path style="opacity:1" fill="#31616b" d="M 442.5,108.5 C 442.5,112.5 442.5,116.5 442.5,120.5C 438.932,120.241 437.599,118.241 438.5,114.5C 439.479,111.375 439.813,108.042 439.5,104.5C 434.833,104.5 430.167,104.5 425.5,104.5C 425.5,105.833 425.5,107.167 425.5,108.5C 425.167,108.5 424.833,108.5 424.5,108.5C 424.338,106.473 424.505,104.473 425,102.5C 430,103.833 435,103.833 440,102.5C 440.781,107.554 440.614,112.554 439.5,117.5C 439.808,118.308 440.308,118.975 441,119.5C 441.177,115.644 441.677,111.977 442.5,108.5 Z"/></g>
<g><path style="opacity:1" fill="#31616b" d="M 572.5,108.5 C 572.5,112.5 572.5,116.5 572.5,120.5C 568.932,120.241 567.599,118.241 568.5,114.5C 569.479,111.375 569.813,108.042 569.5,104.5C 564.833,104.5 560.167,104.5 555.5,104.5C 555.768,106.099 555.434,107.432 554.5,108.5C 554.338,106.473 554.505,104.473 555,102.5C 560,103.833 565,103.833 570,102.5C 570.781,107.554 570.614,112.554 569.5,117.5C 569.808,118.308 570.308,118.975 571,119.5C 571.177,115.644 571.677,111.977 572.5,108.5 Z"/></g>
<g><path style="opacity:1" fill="#32636c" d="M 67.5,108.5 C 67.5,112.5 67.5,116.5 67.5,120.5C 63.9319,120.241 62.5985,118.241 63.5,114.5C 64.4794,111.375 64.8128,108.042 64.5,104.5C 59.8333,104.5 55.1667,104.5 50.5,104.5C 50.5,105.833 50.5,107.167 50.5,108.5C 50.1667,108.5 49.8333,108.5 49.5,108.5C 49.3379,106.473 49.5045,104.473 50,102.5C 55,103.833 60,103.833 65,102.5C 65.781,107.554 65.6143,112.554 64.5,117.5C 64.8076,118.308 65.3076,118.975 66,119.5C 66.1773,115.644 66.6773,111.977 67.5,108.5 Z"/></g>
<g><path style="opacity:0.972" fill="#305559" d="M 118.5,100.5 C 117.81,108.313 117.477,115.98 117.5,123.5C 116.543,116.523 116.377,109.523 117,102.5C 117.278,101.584 117.778,100.918 118.5,100.5 Z"/></g>
<g><path style="opacity:1" fill="#42858c" d="M 355.5,100.5 C 357.555,102.555 359.888,104.221 362.5,105.5C 363.117,105.611 363.617,105.944 364,106.5C 364.495,108.473 364.662,110.473 364.5,112.5C 366.317,116.584 365.817,120.251 363,123.5C 361.113,121.974 360.113,119.974 360,117.5C 358.855,118.684 357.688,118.684 356.5,117.5C 356.756,113.731 356.423,110.064 355.5,106.5C 356.75,106.577 357.583,107.244 358,108.5C 358.5,107.333 359.333,106.5 360.5,106C 357.921,104.924 356.254,103.091 355.5,100.5 Z"/></g>
<g><path style="opacity:0.957" fill="#3e7673" d="M 114.5,123.5 C 113.987,118.285 113.654,112.951 113.5,107.5C 112.5,107.5 111.5,107.5 110.5,107.5C 109.044,109.37 107.711,111.37 106.5,113.5C 105.833,113.5 105.5,113.167 105.5,112.5C 106.224,110.782 106.891,108.948 107.5,107C 110.011,104.895 112.344,105.062 114.5,107.5C 115.344,112.79 115.344,118.124 114.5,123.5 Z"/></g>
<g><path style="opacity:1" fill="#202f3c" d="M 47.5,108.5 C 44.5,108.5 41.5,108.5 38.5,108.5C 38.5,110.833 38.5,113.167 38.5,115.5C 37.4324,116.434 36.099,116.768 34.5,116.5C 34.5,114.833 34.5,113.167 34.5,111.5C 34.5,110.5 34.5,109.5 34.5,108.5C 34.8333,108.5 35.1667,108.5 35.5,108.5C 35.1924,110.924 35.5258,113.257 36.5,115.5C 37.48,112.914 37.8134,110.247 37.5,107.5C 41.0419,107.187 44.3752,107.521 47.5,108.5 Z"/></g>
<g><path style="opacity:1" fill="#3b6e73" d="M 206.5,100.5 C 208.899,103.058 211.732,105.058 215,106.5C 215.547,110.16 216.047,113.827 216.5,117.5C 216.489,119.045 216.156,120.378 215.5,121.5C 214.497,106.845 213.497,106.845 212.5,121.5C 211.71,120.391 211.21,119.058 211,117.5C 210.617,118.056 210.117,118.389 209.5,118.5C 208.883,118.389 208.383,118.056 208,117.5C 207.68,113.786 207.18,110.119 206.5,106.5C 207.117,106.611 207.617,106.944 208,107.5C 208.179,110.553 208.679,113.553 209.5,116.5C 210.37,114.242 210.37,111.909 209.5,109.5C 209.709,108.006 210.376,106.839 211.5,106C 208.921,104.924 207.254,103.091 206.5,100.5 Z"/></g>
<g><path style="opacity:1" fill="#202f3c" d="M 422.5,108.5 C 419.5,108.5 416.5,108.5 413.5,108.5C 413.5,110.833 413.5,113.167 413.5,115.5C 412.432,116.434 411.099,116.768 409.5,116.5C 409.5,114.833 409.5,113.167 409.5,111.5C 409.263,110.209 409.596,109.209 410.5,108.5C 410.192,110.924 410.526,113.257 411.5,115.5C 412.48,112.914 412.813,110.247 412.5,107.5C 416.042,107.187 419.375,107.521 422.5,108.5 Z"/></g>
<g><path style="opacity:1" fill="#1a2231" d="M 461.5,108.5 C 465.151,107.835 468.985,107.501 473,107.5C 477.229,107.51 481.062,108.177 484.5,109.5C 476.92,108.534 469.253,108.201 461.5,108.5 Z"/></g>
<g><path style="opacity:1" fill="#1a2231" d="M 503.5,108.5 C 507.151,107.835 510.985,107.501 515,107.5C 519.229,107.51 523.062,108.177 526.5,109.5C 518.92,108.534 511.253,108.201 503.5,108.5 Z"/></g>
<g><path style="opacity:1" fill="#2e525b" d="M 78.5,103.5 C 79.6006,104.848 80.6006,106.348 81.5,108C 80.9558,108.717 80.2891,109.217 79.5,109.5C 76.8569,108.021 74.3569,108.354 72,110.5C 70.8904,108.963 69.3904,108.297 67.5,108.5C 71.1839,108.194 75.1839,107.694 79.5,107C 78.6634,105.989 78.33,104.822 78.5,103.5 Z"/></g>
<g><path style="opacity:1" fill="#2f555f" d="M 453.5,103.5 C 458.093,107.864 457.426,109.53 451.5,108.5C 449.61,108.297 448.11,108.963 447,110.5C 445.89,108.963 444.39,108.297 442.5,108.5C 445.832,108.136 449.499,107.803 453.5,107.5C 453.5,106.167 453.5,104.833 453.5,103.5 Z"/></g>
<g><path style="opacity:0.997" fill="#6ef9b0" d="M 461.5,108.5 C 469.253,108.201 476.92,108.534 484.5,109.5C 485.779,110.715 486.779,110.382 487.5,108.5C 487.833,108.5 488.167,108.5 488.5,108.5C 488.5,110.167 488.5,111.833 488.5,113.5C 487.5,113.5 486.5,113.5 485.5,113.5C 484.833,113.833 484.167,114.167 483.5,114.5C 476.235,114.82 468.902,114.82 461.5,114.5C 461.5,112.5 461.5,110.5 461.5,108.5 Z"/></g>
<g><path style="opacity:1" fill="#2d525c" d="M 584.5,104.5 C 587.497,108.138 586.83,109.471 582.5,108.5C 580.278,108.178 578.444,108.845 577,110.5C 575.89,108.963 574.39,108.297 572.5,108.5C 576.184,108.194 580.184,107.694 584.5,107C 583.226,106.023 583.226,105.189 584.5,104.5 Z"/></g>
<g><path style="opacity:0.918" fill="#64f694" d="M 411.5,102.5 C 410.85,104.435 410.517,106.435 410.5,108.5C 409.596,109.209 409.263,110.209 409.5,111.5C 408.044,114.927 407.044,118.594 406.5,122.5C 405.167,123.833 403.833,123.833 402.5,122.5C 401.425,119.562 401.259,116.562 402,113.5C 403.599,110.848 405.099,108.182 406.5,105.5C 408.532,104.439 409.866,102.772 410.5,100.5C 411.298,100.957 411.631,101.624 411.5,102.5 Z"/></g>
<g><path style="opacity:0.977" fill="#6cf9ad" d="M 503.5,108.5 C 511.253,108.201 518.92,108.534 526.5,109.5C 527.779,110.715 528.779,110.382 529.5,108.5C 529.833,108.5 530.167,108.5 530.5,108.5C 530.5,110.167 530.5,111.833 530.5,113.5C 529.5,113.5 528.5,113.5 527.5,113.5C 526.833,113.833 526.167,114.167 525.5,114.5C 518.235,114.82 510.902,114.82 503.5,114.5C 503.5,112.5 503.5,110.5 503.5,108.5 Z"/></g>
<g><path style="opacity:0.803" fill="#68f7a1" d="M 47.5,108.5 C 46.4324,109.434 45.099,109.768 43.5,109.5C 44.5749,113.938 42.9083,115.938 38.5,115.5C 38.5,113.167 38.5,110.833 38.5,108.5C 41.5,108.5 44.5,108.5 47.5,108.5 Z"/></g>
<g><path style="opacity:0.902" fill="#3e7a7e" d="M 250.5,94.5 C 252.99,98.4465 254.824,102.78 256,107.5C 259.671,104.604 262.671,105.271 265,109.5C 265.025,105.047 266.192,101.047 268.5,97.5C 266.558,105.142 265.891,112.809 266.5,120.5C 265.178,120.67 264.011,120.337 263,119.5C 263.215,116.189 263.215,112.856 263,109.5C 262.184,108.177 261.017,107.511 259.5,107.5C 257.769,108.985 256.769,110.985 256.5,113.5C 255.391,113.443 254.391,113.11 253.5,112.5C 253.941,106.225 252.941,100.225 250.5,94.5 Z"/></g>
<g><path style="opacity:0.902" fill="#3f7980" d="M 159.5,108.5 C 159.833,108.5 160.167,108.5 160.5,108.5C 160.5,113.5 160.5,118.5 160.5,123.5C 159.458,124.791 158.292,124.791 157,123.5C 156.501,118.845 156.334,114.179 156.5,109.5C 156.435,109.062 156.601,108.728 157,108.5C 157.333,109.167 157.667,109.833 158,110.5C 158.278,109.584 158.778,108.918 159.5,108.5 Z"/></g>
<g><path style="opacity:0.903" fill="#3f7980" d="M 308.5,108.5 C 308.833,108.5 309.167,108.5 309.5,108.5C 309.5,113.5 309.5,118.5 309.5,123.5C 308.458,124.791 307.292,124.791 306,123.5C 305.501,118.845 305.334,114.179 305.5,109.5C 305.435,109.062 305.601,108.728 306,108.5C 306.333,109.167 306.667,109.833 307,110.5C 307.278,109.584 307.778,108.918 308.5,108.5 Z"/></g>
<g><path style="opacity:0.824" fill="#69f6a4" d="M 422.5,108.5 C 421.432,109.434 420.099,109.768 418.5,109.5C 419.575,113.938 417.908,115.938 413.5,115.5C 413.5,113.167 413.5,110.833 413.5,108.5C 416.5,108.5 419.5,108.5 422.5,108.5 Z"/></g>
<g><path style="opacity:1" fill="#4db0c4" d="M 215.5,121.5 C 214.5,124.167 213.5,124.167 212.5,121.5C 213.497,106.845 214.497,106.845 215.5,121.5 Z"/></g>
<g><path style="opacity:0.847" fill="#6cf4aa" d="M 535.5,108.5 C 536.688,109.684 537.855,109.684 539,108.5C 539.483,109.448 539.649,110.448 539.5,111.5C 537.12,114.675 536.12,118.342 536.5,122.5C 535.167,122.5 533.833,122.5 532.5,122.5C 532.335,119.482 532.502,116.482 533,113.5C 534.372,112.09 535.205,110.423 535.5,108.5 Z"/></g>
<g><path style="opacity:0.722" fill="#71efb9" d="M 591.5,107.5 C 592.5,107.5 593.5,107.5 594.5,107.5C 595.167,113.167 595.833,118.833 596.5,124.5C 595.25,124.423 594.417,123.756 594,122.5C 593.066,123.858 592.232,125.192 591.5,126.5C 591.5,124.5 591.5,122.5 591.5,120.5C 590.902,116.074 590.902,111.74 591.5,107.5 Z"/></g>
<g><path style="opacity:0.633" fill="#3f7980" d="M 648.5,107.5 C 649.79,108.058 650.623,109.058 651,110.5C 651.278,109.584 651.778,108.918 652.5,108.5C 652.833,108.5 653.167,108.5 653.5,108.5C 653.263,112.722 653.596,116.889 654.5,121C 653.978,123.97 652.478,124.804 650,123.5C 649.735,118.118 649.235,112.785 648.5,107.5 Z"/></g>
<g><path style="opacity:0.752" fill="#70f5b4" d="M 138.5,78.5 C 140.5,78.5 142.5,78.5 144.5,78.5C 144.5,90.1667 144.5,101.833 144.5,113.5C 143.542,113.953 142.708,114.619 142,115.5C 141.501,119.486 141.334,123.486 141.5,127.5C 139.856,127.714 138.356,127.38 137,126.5C 136.512,120.423 137.012,114.423 138.5,108.5C 138.5,98.5 138.5,88.5 138.5,78.5 Z"/></g>
<g><path style="opacity:1" fill="#3a727b" d="M 446.5,111.5 C 448.28,112.99 448.946,114.99 448.5,117.5C 443.917,116.985 443.251,114.985 446.5,111.5 Z"/></g>
<g><path style="opacity:1" fill="#3a727c" d="M 576.5,111.5 C 578.28,112.99 578.946,114.99 578.5,117.5C 573.917,116.985 573.251,114.985 576.5,111.5 Z"/></g>
<g><path style="opacity:0.661" fill="#6aeda8" d="M 63.5,114.5 C 62.5,114.5 61.5,114.5 60.5,114.5C 60.5,118.5 60.5,122.5 60.5,126.5C 59.1667,126.5 57.8333,126.5 56.5,126.5C 56.9068,120.839 57.2401,115.172 57.5,109.5C 54.9407,109.802 52.6074,109.468 50.5,108.5C 50.5,107.167 50.5,105.833 50.5,104.5C 55.1667,104.5 59.8333,104.5 64.5,104.5C 64.8128,108.042 64.4794,111.375 63.5,114.5 Z"/></g>
<g><path style="opacity:1" fill="#253c48" d="M 70.5,112.5 C 71.29,113.609 71.79,114.942 72,116.5C 73.0076,111.459 73.5076,111.792 73.5,117.5C 72.5,117.5 71.5,117.5 70.5,117.5C 70.5,115.833 70.5,114.167 70.5,112.5 Z"/></g>
<g><path style="opacity:0.856" fill="#6df7ac" d="M 83.5,79.5 C 83.3335,90.505 83.5002,101.505 84,112.5C 84.9772,113.774 85.8106,113.774 86.5,112.5C 87.4674,111.194 88.8007,110.527 90.5,110.5C 91.8935,116.039 92.5601,121.705 92.5,127.5C 90.5,127.5 88.5,127.5 86.5,127.5C 86.8333,123.5 87.1667,119.5 87.5,115.5C 84.1934,115.063 81.1934,115.73 78.5,117.5C 77.11,114.524 77.4433,111.857 79.5,109.5C 80.2891,109.217 80.9558,108.717 81.5,108C 80.6006,106.348 79.6006,104.848 78.5,103.5C 78.3713,101.784 78.038,100.117 77.5,98.5C 77.5,92.1667 77.5,85.8333 77.5,79.5C 79.5,79.5 81.5,79.5 83.5,79.5 Z"/></g>
<g><path style="opacity:0.652" fill="#70f2b6" d="M 271.5,90.5 C 272.492,98.3159 272.826,106.316 272.5,114.5C 273.5,114.5 274.5,114.5 275.5,114.5C 275.5,112.5 275.5,110.5 275.5,108.5C 277.167,108.5 278.833,108.5 280.5,108.5C 280.756,110.792 280.423,112.959 279.5,115C 276.183,115.498 272.85,115.665 269.5,115.5C 270.084,118.285 269.084,119.952 266.5,120.5C 265.891,112.809 266.558,105.142 268.5,97.5C 270.065,95.4907 271.065,93.1573 271.5,90.5 Z"/></g>
<g><path style="opacity:0.665" fill="#6aeea9" d="M 438.5,114.5 C 437.5,114.5 436.5,114.5 435.5,114.5C 435.895,118.185 436.062,121.852 436,125.5C 434.644,126.38 433.144,126.714 431.5,126.5C 431.907,120.839 432.24,115.172 432.5,109.5C 429.941,109.802 427.607,109.468 425.5,108.5C 425.5,107.167 425.5,105.833 425.5,104.5C 430.167,104.5 434.833,104.5 439.5,104.5C 439.813,108.042 439.479,111.375 438.5,114.5 Z"/></g>
<g><path style="opacity:0.651" fill="#71ecb8" d="M 206.5,106.5 C 207.18,110.119 207.68,113.786 208,117.5C 208.383,118.056 208.883,118.389 209.5,118.5C 209.5,122.167 209.5,125.833 209.5,129.5C 207.901,129.768 206.568,129.434 205.5,128.5C 206.5,128.5 207.5,128.5 208.5,128.5C 208.665,125.482 208.498,122.482 208,119.5C 205.671,119.602 203.171,119.269 200.5,118.5C 200.975,115.687 199.975,113.687 197.5,112.5C 196.887,105.606 199.887,103.606 206.5,106.5 Z"/></g>
<g><path style="opacity:1" fill="#386b74" d="M 94.5,109.5 C 95.4816,112.962 95.815,116.629 95.5,120.5C 96.5,120.5 97.5,120.5 98.5,120.5C 97.1501,123.106 95.6501,123.106 94,120.5C 93.7208,116.83 93.8875,113.163 94.5,109.5 Z"/></g>
<g><path style="opacity:0.817" fill="#6df1ae" d="M 375.5,108.5 C 376.219,110.764 376.552,113.097 376.5,115.5C 375.312,114.316 374.145,114.316 373,115.5C 372.612,120.511 372.778,125.511 373.5,130.5C 371.833,130.5 370.167,130.5 368.5,130.5C 368.5,125.5 368.5,120.5 368.5,115.5C 369.88,116.706 371.047,116.373 372,114.5C 371.49,112.62 371.657,110.787 372.5,109C 373.448,108.517 374.448,108.351 375.5,108.5 Z"/></g>
<g><path style="opacity:1" fill="#305a64" d="M 375.5,108.5 C 376.117,108.611 376.617,108.944 377,109.5C 377.564,114.194 377.397,118.86 376.5,123.5C 375.233,120.939 375.233,118.272 376.5,115.5C 376.552,113.097 376.219,110.764 375.5,108.5 Z"/></g>
<g><path style="opacity:0.628" fill="#6cf0ad" d="M 568.5,114.5 C 567.5,114.5 566.5,114.5 565.5,114.5C 565.5,118.5 565.5,122.5 565.5,126.5C 564.167,126.5 562.833,126.5 561.5,126.5C 561.833,121.167 562.167,115.833 562.5,110.5C 557.833,110.5 553.167,110.5 548.5,110.5C 548.5,112.167 548.5,113.833 548.5,115.5C 546.833,115.5 545.167,115.5 543.5,115.5C 543.5,113.167 543.5,110.833 543.5,108.5C 546.5,108.5 549.5,108.5 552.5,108.5C 553.396,109.506 554.062,109.506 554.5,108.5C 555.434,107.432 555.768,106.099 555.5,104.5C 560.167,104.5 564.833,104.5 569.5,104.5C 569.813,108.042 569.479,111.375 568.5,114.5 Z"/></g>
<g><path style="opacity:1" fill="#55c8dd" d="M 599.5,127.5 C 599.962,122.838 600.462,118.171 601,113.5C 601.634,117.855 601.967,122.188 602,126.5C 601.329,127.252 600.496,127.586 599.5,127.5 Z"/></g>
<g><path style="opacity:0.604" fill="#6cf1a9" d="M 646.5,107.5 C 646.586,114.863 646.753,122.196 647,129.5C 645.333,130.833 643.667,130.833 642,129.5C 642.22,124.661 642.053,119.994 641.5,115.5C 640.339,110.825 642.006,108.159 646.5,107.5 Z"/></g>
<g><path style="opacity:1" fill="#366569" d="M 648.5,107.5 C 647.833,107.5 647.167,107.5 646.5,107.5C 642.006,108.159 640.339,110.825 641.5,115.5C 641.949,117.977 641.283,119.977 639.5,121.5C 636.338,119.519 635.671,116.852 637.5,113.5C 637.5,112.5 637.5,111.5 637.5,110.5C 637.833,110.5 638.167,110.5 638.5,110.5C 638.183,113.572 638.516,116.572 639.5,119.5C 640.325,115.878 640.825,112.211 641,108.5C 643.357,106.354 645.857,106.021 648.5,107.5 Z"/></g>
<g><path style="opacity:0.443" fill="#61f68b" d="M 34.5,108.5 C 34.5,109.5 34.5,110.5 34.5,111.5C 32.9823,114.534 32.1489,117.867 32,121.5C 30.5557,123.155 28.7224,123.822 26.5,123.5C 26.5,121.167 26.5,118.833 26.5,116.5C 28.2196,113.206 30.2196,110.04 32.5,107C 33.816,106.472 34.4827,106.972 34.5,108.5 Z"/></g>
<g><path style="opacity:0.592" fill="#6defad" d="M 259.5,107.5 C 259.67,113.527 259.837,119.527 260,125.5C 258.667,126.833 257.333,126.833 256,125.5C 255.156,122.394 255.656,119.561 257.5,117C 257.011,115.862 256.678,114.695 256.5,113.5C 256.769,110.985 257.769,108.985 259.5,107.5 Z"/></g>
<g><path style="opacity:1" fill="#36636b" d="M 385.5,108.5 C 386.283,112.146 386.45,115.812 386,119.5C 384.667,120.833 383.333,120.833 382,119.5C 381.393,116.798 381.56,114.132 382.5,111.5C 382.444,110.263 381.944,109.263 381,108.5C 379.954,109.772 379.454,111.272 379.5,113C 380.333,116.484 380.499,119.984 380,123.5C 378.651,126.07 377.484,126.07 376.5,123.5C 377.756,123.539 378.756,123.039 379.5,122C 378.368,117.587 378.201,113.087 379,108.5C 380.333,107.167 381.667,107.167 383,108.5C 383.741,111.562 383.575,114.562 382.5,117.5C 383.76,120.109 384.76,119.943 385.5,117C 384.268,114.017 384.268,111.184 385.5,108.5 Z"/></g>
<g><path style="opacity:1" fill="#35626c" d="M 485.5,113.5 C 487.168,115.479 487.834,117.812 487.5,120.5C 486.167,120.5 484.833,120.5 483.5,120.5C 483.5,118.5 483.5,116.5 483.5,114.5C 484.167,114.167 484.833,113.833 485.5,113.5 Z"/></g>
<g><path style="opacity:1" fill="#34616b" d="M 527.5,113.5 C 529.168,115.479 529.834,117.812 529.5,120.5C 528.167,120.5 526.833,120.5 525.5,120.5C 525.5,118.5 525.5,116.5 525.5,114.5C 526.167,114.167 526.833,113.833 527.5,113.5 Z"/></g>
<g><path style="opacity:0.616" fill="#6bf1a8" d="M 356.5,117.5 C 358.002,121.342 358.668,125.342 358.5,129.5C 354.092,129.938 352.425,127.938 353.5,123.5C 352.167,123.5 350.833,123.5 349.5,123.5C 349.261,121.533 349.594,119.699 350.5,118C 351.742,117.689 352.742,118.189 353.5,119.5C 354.518,118.807 355.518,118.141 356.5,117.5 Z"/></g>
<g><path style="opacity:0.531" fill="#68f2a0" d="M 200.5,118.5 C 203.171,119.269 205.671,119.602 208,119.5C 208.498,122.482 208.665,125.482 208.5,128.5C 207.5,128.5 206.5,128.5 205.5,128.5C 204.549,127.081 204.216,125.415 204.5,123.5C 203.167,123.5 201.833,123.5 200.5,123.5C 200.5,121.833 200.5,120.167 200.5,118.5 Z"/></g>
<g><path style="opacity:0.453" fill="#6beea8" d="M 476.5,120.5 C 477.822,120.33 478.989,120.663 480,121.5C 480.495,123.473 480.662,125.473 480.5,127.5C 475.59,127.424 474.257,125.09 476.5,120.5 Z"/></g>
<g><path style="opacity:0.449" fill="#6beea7" d="M 518.5,120.5 C 519.822,120.33 520.989,120.663 522,121.5C 522.495,123.473 522.662,125.473 522.5,127.5C 517.59,127.424 516.257,125.09 518.5,120.5 Z"/></g>
<g><path style="opacity:0.712" fill="#66f699" d="M 580.5,119.5 C 581.496,119.414 582.329,119.748 583,120.5C 583.497,122.81 583.663,125.143 583.5,127.5C 582.167,127.5 580.833,127.5 579.5,127.5C 579.401,124.763 579.735,122.096 580.5,119.5 Z"/></g>
<g><path style="opacity:0.464" fill="#6af3a4" d="M 152.5,107.5 C 152.104,114.126 152.77,120.626 154.5,127C 154.257,130.003 152.59,131.17 149.5,130.5C 149.356,126.625 149.69,122.792 150.5,119C 150.299,116.889 149.633,115.055 148.5,113.5C 147.891,110.122 149.224,108.122 152.5,107.5 Z"/></g>
<g><path style="opacity:0.712" fill="#61f68c" d="M 191.5,125.5 C 191.662,127.527 191.495,129.527 191,131.5C 189.384,132.801 187.884,132.801 186.5,131.5C 186.205,128.266 186.871,125.266 188.5,122.5C 189.735,123.34 190.735,124.34 191.5,125.5 Z"/></g>
<g><path style="opacity:0.682" fill="#335d64" d="M 206.5,106.5 C 199.887,103.606 196.887,105.606 197.5,112.5C 197.909,116.848 198.076,121.181 198,125.5C 195.978,126.991 194.312,126.658 193,124.5C 193.891,118.249 194.391,111.916 194.5,105.5C 195.082,112.036 195.415,118.703 195.5,125.5C 196.331,118.858 196.831,112.191 197,105.5C 199.737,104.39 202.571,104.223 205.5,105C 206.056,105.383 206.389,105.883 206.5,106.5 Z"/></g>
<g><path style="opacity:0.46" fill="#6af3a4" d="M 301.5,107.5 C 301.104,114.126 301.77,120.626 303.5,127C 303.257,130.003 301.59,131.17 298.5,130.5C 298.822,124.642 298.489,118.975 297.5,113.5C 296.891,110.122 298.224,108.122 301.5,107.5 Z"/></g>
<g><path style="opacity:0.712" fill="#61f68c" d="M 340.5,125.5 C 340.662,127.527 340.495,129.527 340,131.5C 338.384,132.801 336.884,132.801 335.5,131.5C 335.205,128.266 335.871,125.266 337.5,122.5C 338.735,123.34 339.735,124.34 340.5,125.5 Z"/></g>
<g><path style="opacity:0.682" fill="#335d64" d="M 355.5,106.5 C 352.629,105.321 349.796,105.321 347,106.5C 346.322,111.857 346.489,117.191 347.5,122.5C 347.888,124.955 346.888,126.288 344.5,126.5C 342.539,125.921 341.539,124.587 341.5,122.5C 343.023,116.934 343.69,111.267 343.5,105.5C 344.082,112.036 344.415,118.703 344.5,125.5C 345.331,118.858 345.831,112.191 346,105.5C 348.737,104.39 351.571,104.223 354.5,105C 355.056,105.383 355.389,105.883 355.5,106.5 Z"/></g>
<g><path style="opacity:0.698" fill="#63f592" d="M 596.5,124.5 C 596.784,127.777 596.451,130.943 595.5,134C 593.888,134.72 592.388,134.554 591,133.5C 590.297,131.071 590.463,128.738 591.5,126.5C 592.232,125.192 593.066,123.858 594,122.5C 594.417,123.756 595.25,124.423 596.5,124.5 Z"/></g>
<g><path style="opacity:0.5" fill="#68f39f" d="M 110.5,107.5 C 109.899,109.578 109.566,111.745 109.5,114C 110.86,119.74 111.527,125.574 111.5,131.5C 109.856,131.714 108.356,131.38 107,130.5C 106.056,125.928 106.556,121.595 108.5,117.5C 108.248,115.927 107.582,114.594 106.5,113.5C 107.711,111.37 109.044,109.37 110.5,107.5 Z"/></g>
<g><path style="opacity:0.697" fill="#5ff886" d="M 451.5,132.5 C 450.833,132.5 450.5,132.167 450.5,131.5C 450.292,129.08 450.626,126.747 451.5,124.5C 452.325,123.614 453.325,123.281 454.5,123.5C 455.263,126.141 455.43,128.808 455,131.5C 453.989,132.337 452.822,132.67 451.5,132.5 Z"/></g>
<g><path style="opacity:0.271" fill="#60f689" d="M 497.5,125.5 C 497.5,127.833 497.5,130.167 497.5,132.5C 495.585,132.784 493.919,132.451 492.5,131.5C 492.144,128.436 492.977,125.769 495,123.5C 495.708,124.381 496.542,125.047 497.5,125.5 Z"/></g>
</svg>
